<?xml version="1.0" ?><svg style="enable-background:new 0 0 512 512;" version="1.1" viewBox="0 0 512 512" xml:space="preserve" xmlns="http://www.w3.org/2000/svg" xmlns:xlink="http://www.w3.org/1999/xlink"><style type="text/css">
	.st0{display:none;}
	.st1{fill:#DEFFFE;}
	.st2{fill:#004358;}
	.st3{fill:#04BFBF;}
	.st4{fill:#BEDB39;}
</style><g id="Layer_1"/><g class="st0" id="Layer_3"/><g class="st0" id="Layer_5"/><g id="Layer_4"><g><polygon class="st1" points="349.13,308.367 362.043,341.929 377.304,341.929 377.304,310.864   "/><polygon class="st1" points="324.087,234.739 341.08,282.087 357.866,282.087 341.08,234.739   "/><polygon class="st1" points="108.783,393.846 378,393.846 371.522,376.391 396.273,377.826 407.29,408.765 106.522,411.217   "/><path class="st1" d="M440.894,372.87c3.324,39.522,23.261,39.13,35.597,27.391c0,0,3.564,23.957-24.137,30.913    s-42.962,2.739-42.962,2.739l-1.435-29.174l26.787-2.522L440.894,372.87z"/><rect class="st1" height="28.895" width="269.576" x="121.212" y="442.522"/><path class="st1" d="M208.097,98.477c9.66-0.771,21.995-3.09,28.876-9.602c12.085,12.006,30.614,15.255,47.145,15.254    c7.58,0,14.739-0.684,20.661-1.521l-0.643-14.432c-5.795,0.795-12.711,1.431-20.018,1.431c-16.531,0-35.061-3.249-47.145-15.254    c-6.906,6.536-19.307,8.848-28.983,9.611L208.097,98.477z"/><g><path class="st2" d="M86.783,428.13h-2.412c-41.424,0-42.844-13.089-45.196-34.774c-0.222-2.04-0.448-4.122-0.712-6.237     c-2.61-20.883-8.624-29.641-13.93-37.368c-5.528-8.05-9.894-14.408-9.511-34.701c0.174-9.229,2.977-16.391,8.33-21.285     c2.038-1.863,2.18-5.026,0.316-7.064c-1.864-2.039-5.027-2.181-7.064-0.317c-7.352,6.721-11.356,16.568-11.58,28.477     c-0.443,23.499,5.244,31.781,11.265,40.55c4.888,7.119,9.942,14.479,12.25,32.947c0.258,2.061,0.478,4.088,0.693,6.076     c2.438,22.471,4.74,43.695,55.138,43.695C92.21,439.869,95.015,429.056,86.783,428.13z"/><path class="st2" d="M506.976,314.862c-0.377-19.984-11.456-33.881-29.636-37.175c-16.078-2.909-32.793,3.884-37.259,15.151     c-1.017,2.567,0.239,5.473,2.807,6.49c2.567,1.016,5.473-0.24,6.49-2.807c2.705-6.828,14.938-11.032,26.18-8.995     c7.833,1.419,21.031,6.881,21.42,27.523c0.383,20.292-3.983,26.651-9.511,34.701c-5.306,7.727-11.319,16.485-13.93,37.368     c-0.264,2.115-0.49,4.197-0.712,6.237c-2.352,21.685-3.772,34.774-45.196,34.774c-8.666-1.126-8.66,11.128,0,10     c50.398,0,52.701-21.225,55.138-43.695c0.215-1.987,0.435-4.015,0.693-6.076c2.308-18.468,7.363-25.829,12.25-32.947     C501.732,346.643,507.419,338.361,506.976,314.862z"/><path class="st2" d="M151.016,288.924c2.563,1.023,5.474-0.223,6.499-2.787l18.618-46.579h159.735l18.618,46.579     c2.359,6.081,11.772,2.258,9.286-3.712l-19.875-49.723c-0.759-1.899-2.598-3.144-4.643-3.144h-6.652l-3.653-18.731     c-4.246-21.773-21.638-38.287-42.928-41.939c14.173-9.638,23.501-25.892,23.501-44.286V86.636c0-2.761-2.239-5-5-5s-5,2.239-5,5     v37.966c0,23.998-19.524,43.522-43.522,43.522s-43.521-19.524-43.521-43.522V82.566c0-2.761-2.239-5-5-5s-5,2.239-5,5v42.035     c0,18.394,9.329,34.647,23.501,44.286c-21.291,3.653-38.682,20.166-42.929,41.939l-3.653,18.731h-6.652     c-2.045,0-3.884,1.245-4.643,3.144l-19.875,49.723C147.204,284.989,148.452,287.899,151.016,288.924z M297.526,218.906     c2.761,0,5,2.239,5,5v5.652h-10v-5.652C292.526,221.145,294.765,218.906,297.526,218.906z M209.474,223.906c0-2.761,2.239-5,5-5     s5,2.239,5,5v5.652h-10V223.906z"/><path class="st2" d="M391.273,453.568c-2.761,0-5,2.239-5,5v38.696H125.727v-38.696c0-2.761-2.239-5-5-5s-5,2.239-5,5v43.696     c0,2.761,2.239,5,5,5h270.547c2.761,0,5-2.239,5-5v-43.696C396.273,455.807,394.035,453.568,391.273,453.568z"/><path class="st2" d="M415.056,411.783c0.352-2.001-14.212-35.691-14.624-37.639c-1.025-2.564-3.935-3.811-6.499-2.787     c-2.564,1.025-3.812,3.935-2.787,6.499l11.526,28.836H110.818l10.114-29.048c0.908-2.608-0.553-5.04-3.161-5.948     c-2.605-0.907-5.375,0.052-6.283,2.66l-12.428,35.692c-0.155,0.536-0.248,1.087-0.278,1.644v28.876c0,2.761,2.239,5,5,5h306.273     c2.761,0,5-2.239,5-5C415.056,440.565,415.056,411.787,415.056,411.783z M405.056,435.568H108.783v-18.876h296.273V435.568z"/></g><path class="st4" d="M317.156,25.008c-9.287-13.582-23.544-21.51-39.116-21.753c-26.529-0.409-38.854,11.189-43.729,17.854    c-9.572-4.158-32.52-11.71-43.969,5.214c-13.229,19.558-1.124,56.557-0.602,58.122c0.651,1.955,2.436,3.31,4.494,3.413    c3.533,0.177,30.752,1.151,42.384-9.856c12.084,12.006,30.614,15.255,47.145,15.254c18.712-0.001,34.861-4.167,36.175-4.515    c1.57-0.416,2.841-1.569,3.406-3.092C331.119,64.714,328.806,42.045,317.156,25.008z"/><path class="st2" d="M400.43,374.14c-0.78-1.95-2.65-3.14-4.64-3.14c-0.62,0-1.25,0.11-1.86,0.36c-2.56,1.02-3.81,3.93-2.78,6.5    l1.25,3.14h6.27c1.43,0,2.84-0.25,4.22-0.7L400.43,374.14z"/><path class="st2" d="M117.77,371.7c-2.6-0.91-5.37,0.05-6.28,2.66l-2.1,6.03c1.29,0.4,2.6,0.61,3.94,0.61h6.43l1.17-3.36    C121.84,375.04,120.38,372.6,117.77,371.7z"/><g><path class="st3" d="M137.77,336c3.56-4.77,5.21-10.17,4.92-16.11c-0.05-1.02-0.18-2.04-0.35-3.06     c0.852-0.045,8.409,0.129,9.04-0.15l41.54-10.17c2.24-0.55,3.81-2.55,3.81-4.85c0-0.47-0.1-11.42-9.41-18.57     c-8.35-6.41-20.96-7.49-37.47-3.21l-21.77-2.7c10.68-7.51,17.96-19.55,19-33.3c1.97-1.15,3.6-2.83,4.79-4.98     c6.84-12.32-2.05-39.03-4.65-46.23v-4.53c2.64-2.32,4.99-5.02,6.96-8.05c6.16-9.49,7.84-21.09,4.6-31.83     c-7.52-24.93-31.24-39.22-65.09-39.22c-31.42,0-50.19,15.66-60.4,28.8c-18.28,23.52-21.59,53.93-16.92,72.23     c3.99,15.67,0.15,28.31-3.57,40.54c-5.44,17.93-11.08,36.46,17.72,54.65c6.13,3.87,12.96,5.78,19.85,5.78     c1.93,0,3.87-0.16,5.8-0.46c-0.74,4.57-0.9,9.42-0.47,14.64c-1.6-1.66-2.7-2.64-2.87-2.8c-2.07-1.82-5.22-1.62-7.05,0.44     c-1.83,2.07-1.63,5.23,0.43,7.06c0.13,0.11,10.51,9.45,15.52,22.18c0.99,3,1.75,5.97,2.37,8.88c2.44,17.63-2.66,37.28-2.72,37.48     c-1.727,7.013,9.39,8.702,9.96,1.39c2.78,5.21,7.42,8.74,15.65,8.91h12.52l3.48-10H87.15c-7.48-0.17-8.75-4.38-10.49-20.79     c-0.58-5.54-1.27-11.98-2.71-18.82c-0.53-3.63-1.51-7.09-2.77-10.35c-0.02-0.07-0.04-0.14-0.07-0.21     c-5.88-17.64-7.13-30.54-3.95-41.41c3.44-1.63,6.75-3.76,9.84-6.4c5.25-4.5,9.24-9.86,11.88-15.7     c5.437,0.353,12.965,0.413,18.38-0.05c8.12,6.34,24.78,22.02,25.44,35.37c0.17,3.33-0.71,6.34-2.62,9.12     c-8.15-8.91-18.29-20.78-18.43-20.94c-1.79-2.1-4.95-2.35-7.05-0.56c-2.1,1.8-2.35,4.95-0.55,7.05     c0.79,0.93,19.58,22.92,26.87,29.72c1.01,0.95,2.37,1.43,3.76,1.33c5.03-0.35,14.49-0.22,24.17,1.64V371h-45.52     c-7.37,0-18.81-21.68-24.23-37.33c-0.91-2.61-3.75-3.99-6.37-3.09c-2.6,0.9-3.99,3.75-3.08,6.36     c2.35,6.8,14.13,38.64,29.74,43.45c1.29,0.4,2.6,0.61,3.94,0.61h67.34c6.12,0,11.62-3.4,14.35-8.87     c2.74-5.48,2.15-11.93-1.53-16.83C179.74,336.99,148.64,335.82,137.77,336z M81.88,274.49c-1.8,7.91-6.42,14.44-11.38,18.69     c-8.29,7.09-21.75,11.77-34.64,3.62c-22.35-14.11-19.02-25.09-13.49-43.28c3.92-12.91,8.37-27.54,3.69-45.92     c-4.22-16.52-0.37-43.68,15.12-63.62c8.84-11.38,25.13-24.94,52.51-24.94c29.56,0,49.27,11.4,55.52,32.11     c2.39,7.91,1.14,16.48-3.42,23.49c-4.56,7.06-12.15,11.83-20.46,12.87c-13.17,1.66-29.94,1.45-41.2-7.08     c-2.36-1.77-4.41-3.9-6.13-6.31c-2.47-3.74-8.73-2.12-9.06,2.37c-0.18,1.73-4.2,42.62,10.84,77.46     C82.62,260.46,83.44,267.71,81.88,274.49z M107.9,274.86c-3.51,0.69-10.56,0.39-14.21,0.45c-0.57,0-1.15-0.01-1.74-0.04     c1.58-8.43,0.5-17.27-2.99-25.28c-9.28-22.19-10.6-43.87-10.58-61.34c11.23,8.35,27.62,11.38,48.2,8.78     c3.69-0.48,7.32-1.48,10.72-2.97c0.05,0.29,0.13,0.56,0.23,0.84c4.51,12.15,9.23,32.21,5.6,38.75c-2.08,2.58-5.98,1.83-5.91,6.39     C137.22,257.77,124.5,272.19,107.9,274.86z M124.17,286.77l25.4,3.15c0.64,0.08,1.29,0.03,1.92-0.13     c13.55-3.64,23.8-3.24,29.64,1.16c2.78,2.09,4.18,4.79,4.89,6.95l-36.43,8.93h-10.51C135.41,299.19,129.56,292.19,124.17,286.77z      M186.07,367.66c-1.04,2.09-3.06,3.34-5.4,3.34h-11.82v-20.61c6.73,2.34,12.82,5.81,16.65,10.91     C186.91,363.18,187.12,365.56,186.07,367.66z"/><path class="st3" d="M483.41,151.14c0.1-1.09,0.15-2.17,0.15-3.25c0-20.27-16.49-36.76-36.76-36.76     c-13.42,0-25.47,7.14-31.94,18.55c-4.04-4.73-10.01-7.58-16.46-7.58c-9.81,0-18.12,6.57-20.76,15.54     c-2.91-1.03-5.98-1.56-9.14-1.56c-15.12,0-27.42,12.31-27.42,27.43c0,6.51,2.23,12.63,6.35,17.54c-0.38,1.6-0.56,3.23-0.56,4.88     c0,9.43,6.07,17.47,14.51,20.43c-4.41,16.4-4.67,28.05-0.74,34.64c1.17,1.96,2.71,3.5,4.56,4.58     c0.98,12.88,7.42,24.25,17.01,31.81l-20.06,2.49c-16.52-4.28-29.12-3.2-37.47,3.21c-9.31,7.15-9.41,18.1-9.41,18.57     c0,2.3,1.57,4.3,3.81,4.85l41.54,10.17c0.39,0.1,0.79,0.15,1.19,0.15h9.26c-0.31,5.6-0.09,11.96,0.81,19.16     c-12.47,0.05-40.51,2.18-53.37,19.31c-3.68,4.9-4.27,11.35-1.53,16.83c2.73,5.47,8.23,8.87,14.35,8.87h67.34     c1.43,0,2.84-0.25,4.22-0.7c15.47-5.1,27.13-36.6,29.46-43.36c0.91-2.61-0.48-5.46-3.08-6.36c-2.61-0.9-5.46,0.48-6.37,3.09     c-5.42,15.65-16.86,37.33-24.23,37.33h-41.85v-23.89c10.96-1.59,20.31-1,20.5-0.99c1.38,0.099,2.764-0.423,3.78-1.35     c0.01,0,0.01-0.01,0.01-0.01c7.32-6.84,26.05-28.76,26.84-29.69c1.8-2.1,1.55-5.25-0.55-7.05c-2.1-1.79-5.26-1.54-7.05,0.56     c-0.15,0.17-10.79,12.63-19.04,21.6c-2.78-32.3,10.72-41.68,18.28-44.38c9.16,1.87,20.04,1.69,29.26,0.19     c3.34,1.44,6.07,3.52,8.12,6.19c11.41,14.83,12.5,30.65,3.92,56.41c-0.03,0.07-0.05,0.14-0.07,0.21     c-1.26,3.26-2.24,6.72-2.77,10.35c-1.44,6.84-2.13,13.28-2.71,18.82c-1.74,16.42-3.01,20.62-10.49,20.79h-14.58l4,10h10.74     c8.23-0.17,12.87-3.7,15.65-8.91c0.15,0.66,0.26,1.07,0.29,1.17c0.59,2.24,2.62,3.72,4.83,3.72c0.42,0,0.85-0.06,1.28-0.17     c2.67-0.71,4.26-3.44,3.56-6.11c-0.06-0.2-5.16-19.84-2.72-37.48c0.62-2.92,1.38-5.88,2.37-8.89c5-12.68,15.33-22,15.52-22.17     c2.07-1.83,2.26-4.98,0.44-7.05c-1.83-2.08-4.99-2.27-7.06-0.45c-0.17,0.16-1.26,1.13-2.86,2.79     c1.25-15.29-2.48-27.51-11.41-39.13c-1.16-1.5-2.45-2.86-3.86-4.1c14.28-6.69,25.39-19.54,29.42-35.41     c10.55-10.08,16.03-27.7,16.31-52.5c4.68-5.29,7.53-12.23,7.53-19.83C494.3,165.22,490.28,156.8,483.41,151.14z M346.82,371     h-15.49c-2.34,0-4.36-1.25-5.41-3.34c-1.04-2.1-0.83-4.48,0.58-6.36c4.66-6.2,12.33-9.91,20.32-12.13V371z M372.33,306.83h-9.92     l-36.43-8.93c0.71-2.17,2.11-4.86,4.89-6.95c5.84-4.4,16.09-4.8,29.64-1.16c0.63,0.16,1.28,0.21,1.92,0.13l18.24-2.26     C377.1,292.23,374.03,298.44,372.33,306.83z M418.59,277.01c-5.66-0.02-13.28,0.39-18.61-1.45     c-14.39-4.3-24.91-17.65-24.91-33.42c0-2.38-1.67-4.43-4-4.9c-0.85-0.18-1.36-0.56-1.84-1.36c-1.94-3.25-2.27-12.4,2.23-28.52     c5.19-0.72,10.05-3.39,13.46-7.37c3.79,3.02,8.54,4.75,13.48,4.75c2.9,0,5.77-0.6,8.41-1.71c4.93,7.81,13.71,12.97,22.93,13.47     v32.68c-0.06,3.21,2.83,4.91,5.68,5.44c3.98,1.06,12.27,2.58,21.16,0C449.01,268.09,434.54,277.01,418.59,277.01z M462.49,240.29     c-1.58,1.32-3.28,2.48-5.14,3.34c-6.68,3.16-13.66,2.52-17.61,1.72V215.3c6.67-2.01,12.42-6.34,16.17-12.31     c6.74,1.97,14.16,1.5,20.58-1.36C475.31,220.19,470.53,233.39,462.49,240.29z M477.41,189.28c-3.56,3.16-8.31,4.9-13.07,4.91     c-3.03,0-5.94-0.66-8.64-1.96c-5.23-2.47-6.99,3.61-9.28,6.89c-2.5,3.22-5.98,5.6-9.94,6.71c-1.67,0.47-3.41,0.71-5.14,0.72     c-7.86,0-15.01-4.94-17.79-12.3c-1.09-3.13-5.31-4.25-7.83-2.11c-2.09,1.7-4.63,2.6-7.32,2.6c-4.12,0-7.85-2.13-9.98-5.7     c-0.99-1.65-2.84-2.59-4.77-2.41c-1.92,0.18-3.57,1.46-4.22,3.27c-0.32,0.86-0.73,1.67-1.22,2.41c-2.11,3.22-5.75,5.26-9.7,5.26     c-0.08,0-0.15-0.01-0.23-0.02l-0.36-0.02h-0.08c-6.11-0.35-10.97-5.41-10.97-11.6c0-1.47,0.28-2.92,0.83-4.31     c0.77-1.9,0.29-4.08-1.19-5.49c-3.5-3.32-5.43-7.81-5.43-12.62c0-9.61,7.82-17.43,17.42-17.43c3.77,0,7.36,1.19,10.38,3.43     c4,3,9.09-1.21,7.88-5.77c0-6.42,5.22-11.64,11.64-11.64c4.68,0,8.89,2.79,10.72,7.1c2.14,5.15,10.76,2.83,12.81-1.2     c4.09-10.25,13.85-16.87,24.87-16.87c14.75,0,26.76,12,26.76,26.76c0,1.53-0.14,3.09-0.41,4.65c-0.35,1.96,0.51,3.94,2.17,5.03     c5.62,3.72,8.98,9.95,8.98,16.67C484.3,180.24,481.62,185.62,477.41,189.28z"/></g></g></g></svg>