<?xml version="1.0" ?><svg enable-background="new 0 0 200 200" id="Layer_1" version="1.1" viewBox="0 0 200 200" xml:space="preserve" xmlns="http://www.w3.org/2000/svg" xmlns:xlink="http://www.w3.org/1999/xlink"><g><linearGradient gradientUnits="userSpaceOnUse" id="SVGID_1_" x1="-14.1194" x2="69.125" y1="96.8108" y2="13.5664"><stop offset="1.274966e-07" style="stop-color:#12C2E9"/><stop offset="0.4754" style="stop-color:#C471ED"/><stop offset="1" style="stop-color:#F64F59"/></linearGradient><path d="M39.977,48.359c1.933,0,3.5-1.567,3.5-3.5V40.57c0-1.933-1.567-3.5-3.5-3.5s-3.5,1.567-3.5,3.5   v4.289C36.477,46.792,38.043,48.359,39.977,48.359z" fill="url(#SVGID_1_)"/><linearGradient gradientUnits="userSpaceOnUse" id="SVGID_2_" x1="-5.0856" x2="78.1589" y1="105.8446" y2="22.6002"><stop offset="1.274966e-07" style="stop-color:#12C2E9"/><stop offset="0.4754" style="stop-color:#C471ED"/><stop offset="1" style="stop-color:#F64F59"/></linearGradient><path d="M39.977,55.138c-1.933,0-3.5,1.567-3.5,3.5v4.289c0,1.933,1.567,3.5,3.5,3.5s3.5-1.567,3.5-3.5   v-4.289C43.477,56.705,41.91,55.138,39.977,55.138z" fill="url(#SVGID_2_)"/><linearGradient gradientUnits="userSpaceOnUse" id="SVGID_3_" x1="-5.0856" x2="78.1589" y1="105.8446" y2="22.6002"><stop offset="1.274966e-07" style="stop-color:#12C2E9"/><stop offset="0.4754" style="stop-color:#C471ED"/><stop offset="1" style="stop-color:#F64F59"/></linearGradient><path d="M51.155,48.249h-4.289c-1.933,0-3.5,1.567-3.5,3.5s1.567,3.5,3.5,3.5h4.289   c1.933,0,3.5-1.567,3.5-3.5S53.088,48.249,51.155,48.249z" fill="url(#SVGID_3_)"/><linearGradient gradientUnits="userSpaceOnUse" id="SVGID_4_" x1="-14.1194" x2="69.125" y1="96.8108" y2="13.5664"><stop offset="1.274966e-07" style="stop-color:#12C2E9"/><stop offset="0.4754" style="stop-color:#C471ED"/><stop offset="1" style="stop-color:#F64F59"/></linearGradient><path d="M33.087,48.249h-4.289c-1.933,0-3.5,1.567-3.5,3.5s1.567,3.5,3.5,3.5h4.289   c1.933,0,3.5-1.567,3.5-3.5S35.021,48.249,33.087,48.249z" fill="url(#SVGID_4_)"/><linearGradient gradientUnits="userSpaceOnUse" id="SVGID_5_" x1="86.9046" x2="170.1491" y1="197.8349" y2="114.5904"><stop offset="1.274966e-07" style="stop-color:#12C2E9"/><stop offset="0.4754" style="stop-color:#C471ED"/><stop offset="1" style="stop-color:#F64F59"/></linearGradient><path d="M155.512,134.872c1.933,0,3.5-1.567,3.5-3.5v-4.289c0-1.933-1.567-3.5-3.5-3.5s-3.5,1.567-3.5,3.5   v4.289C152.012,133.305,153.579,134.872,155.512,134.872z" fill="url(#SVGID_5_)"/><linearGradient gradientUnits="userSpaceOnUse" id="SVGID_6_" x1="95.9384" x2="179.1829" y1="206.8687" y2="123.6242"><stop offset="1.274966e-07" style="stop-color:#12C2E9"/><stop offset="0.4754" style="stop-color:#C471ED"/><stop offset="1" style="stop-color:#F64F59"/></linearGradient><path d="M155.512,141.651c-1.933,0-3.5,1.567-3.5,3.5v4.289c0,1.933,1.567,3.5,3.5,3.5s3.5-1.567,3.5-3.5   v-4.289C159.012,143.218,157.444,141.651,155.512,141.651z" fill="url(#SVGID_6_)"/><linearGradient gradientUnits="userSpaceOnUse" id="SVGID_7_" x1="95.9384" x2="179.1829" y1="206.8687" y2="123.6242"><stop offset="1.274966e-07" style="stop-color:#12C2E9"/><stop offset="0.4754" style="stop-color:#C471ED"/><stop offset="1" style="stop-color:#F64F59"/></linearGradient><path d="M166.689,134.762h-4.288c-1.933,0-3.5,1.567-3.5,3.5s1.567,3.5,3.5,3.5h4.288   c1.933,0,3.5-1.567,3.5-3.5S168.622,134.762,166.689,134.762z" fill="url(#SVGID_7_)"/><linearGradient gradientUnits="userSpaceOnUse" id="SVGID_8_" x1="86.9045" x2="170.149" y1="197.8347" y2="114.5903"><stop offset="1.274966e-07" style="stop-color:#12C2E9"/><stop offset="0.4754" style="stop-color:#C471ED"/><stop offset="1" style="stop-color:#F64F59"/></linearGradient><path d="M148.622,134.762h-4.289c-1.933,0-3.5,1.567-3.5,3.5s1.567,3.5,3.5,3.5h4.289   c1.933,0,3.5-1.567,3.5-3.5S150.555,134.762,148.622,134.762z" fill="url(#SVGID_8_)"/><linearGradient gradientUnits="userSpaceOnUse" id="SVGID_9_" x1="48.3475" x2="131.5919" y1="159.2777" y2="76.0332"><stop offset="1.274966e-07" style="stop-color:#12C2E9"/><stop offset="0.4754" style="stop-color:#C471ED"/><stop offset="1" style="stop-color:#F64F59"/></linearGradient><path d="M137.178,58.976c0.008-0.036,0.016-0.072,0.023-0.108c0.041-0.214,0.065-0.43,0.065-0.647   c0-0.003,0.001-0.006,0.001-0.009c0-12.203-9.056-22.131-20.188-22.131h-5.629v-6.546c0-1.933-1.567-3.5-3.5-3.5h-3.933V6.393   c0-1.933-1.567-3.5-3.5-3.5c-1.933,0-3.5,1.567-3.5,3.5v19.643h-3.933c-1.933,0-3.5,1.567-3.5,3.5v6.546H82.92   c-5.456,0-10.571,2.35-14.412,6.625c-3.725,4.171-5.776,9.678-5.776,15.506c0,0.002,0.001,0.004,0.001,0.006   c0,0.22,0.024,0.438,0.066,0.654c0.006,0.033,0.014,0.065,0.021,0.098c0.081,0.367,0.215,0.725,0.415,1.056l5.945,9.834   l-5.945,9.834c-0.009,0.014-0.014,0.03-0.023,0.044c-0.01,0.016-0.021,0.03-0.031,0.047c-0.031,0.056-0.054,0.115-0.082,0.172   c-0.033,0.067-0.068,0.134-0.097,0.202c-0.031,0.074-0.055,0.149-0.08,0.224c-0.024,0.071-0.05,0.142-0.069,0.214   c-0.02,0.076-0.034,0.153-0.049,0.23c-0.015,0.073-0.031,0.146-0.04,0.22c-0.01,0.077-0.014,0.154-0.019,0.232   c-0.005,0.075-0.011,0.149-0.011,0.224c0,0.077,0.007,0.154,0.012,0.23c0.005,0.076,0.008,0.151,0.018,0.226   c0.01,0.077,0.027,0.152,0.042,0.228c0.015,0.074,0.028,0.148,0.047,0.221c0.021,0.077,0.048,0.151,0.073,0.226   c0.024,0.07,0.046,0.141,0.075,0.21c0.031,0.076,0.07,0.149,0.107,0.223c0.026,0.051,0.046,0.105,0.074,0.155   c0.008,0.015,0.019,0.027,0.027,0.042c0.01,0.016,0.016,0.034,0.026,0.05l5.946,9.836l-5.946,9.836   c-0.009,0.015-0.016,0.032-0.025,0.048c-0.009,0.015-0.02,0.028-0.029,0.044c-0.029,0.052-0.05,0.107-0.077,0.161   c-0.036,0.072-0.073,0.143-0.104,0.216c-0.029,0.07-0.052,0.142-0.077,0.214c-0.025,0.074-0.052,0.148-0.072,0.223   c-0.02,0.074-0.033,0.148-0.048,0.223c-0.015,0.075-0.031,0.15-0.042,0.227c-0.01,0.076-0.013,0.151-0.018,0.227   c-0.005,0.076-0.011,0.152-0.011,0.228s0.006,0.152,0.011,0.228c0.005,0.076,0.008,0.152,0.018,0.227   c0.01,0.076,0.026,0.151,0.042,0.227c0.015,0.075,0.028,0.149,0.048,0.223c0.02,0.075,0.047,0.149,0.072,0.223   c0.025,0.072,0.047,0.144,0.077,0.214c0.031,0.073,0.068,0.144,0.104,0.216c0.027,0.053,0.047,0.108,0.077,0.161   c0.009,0.015,0.02,0.028,0.029,0.044c0.009,0.016,0.015,0.032,0.025,0.048l5.946,9.835l-5.943,9.83   c-0.082,0.136-0.154,0.277-0.217,0.42c-0.017,0.04-0.029,0.083-0.044,0.124c-0.059,0.151-0.106,0.304-0.143,0.46   c-0.014,0.06-0.028,0.119-0.039,0.18c-0.036,0.198-0.059,0.398-0.06,0.599c0,0.008-0.002,0.016-0.002,0.024   c0,5.841,2.053,11.35,5.783,15.514c3.833,4.267,8.949,6.617,14.404,6.617h6.666v6.984c0,1.933,1.567,3.5,3.5,3.5h3.907   c-0.331,5.438-2.986,16.676-18.432,23.327c-1.775,0.765-2.595,2.824-1.831,4.599c0.57,1.324,1.861,2.117,3.216,2.117   c0.462,0,0.932-0.092,1.383-0.286c5.432-2.339,9.564-5.206,12.719-8.268c-0.931,2.936-2.146,5.677-3.74,7.905   c-1.125,1.572-0.762,3.758,0.811,4.883c0.617,0.441,1.328,0.654,2.033,0.654c1.091,0,2.167-0.509,2.85-1.464   c1.931-2.699,3.4-5.916,4.519-9.31c1.12,3.394,2.589,6.611,4.52,9.31c0.684,0.955,1.759,1.464,2.85,1.464   c0.705,0,1.416-0.212,2.033-0.654c1.572-1.125,1.936-3.311,0.811-4.883c-1.594-2.228-2.809-4.968-3.74-7.904   c3.156,3.063,7.288,5.929,12.72,8.268c0.451,0.194,0.92,0.286,1.382,0.286c1.355,0,2.646-0.792,3.217-2.117   c0.765-1.775-0.056-3.834-1.831-4.599c-15.447-6.651-18.101-17.889-18.431-23.327h3.901c1.933,0,3.5-1.567,3.5-3.5v-6.984h5.629   c11.132,0,20.188-9.928,20.188-22.131c0-0.009-0.003-0.017-0.003-0.026c-0.002-0.199-0.024-0.396-0.06-0.592   c-0.011-0.064-0.026-0.127-0.041-0.19c-0.036-0.151-0.082-0.299-0.138-0.446c-0.017-0.045-0.03-0.092-0.049-0.136   c-0.062-0.143-0.134-0.283-0.216-0.418l-5.942-9.829l5.945-9.835c0.009-0.014,0.014-0.03,0.023-0.044   c0.01-0.016,0.021-0.03,0.031-0.047c0.032-0.056,0.054-0.116,0.083-0.173c0.033-0.067,0.068-0.132,0.096-0.2   c0.031-0.075,0.056-0.151,0.081-0.228c0.024-0.07,0.049-0.139,0.068-0.21c0.021-0.077,0.035-0.155,0.05-0.233   c0.014-0.073,0.03-0.145,0.04-0.218c0.01-0.077,0.014-0.154,0.019-0.232c0.005-0.075,0.011-0.15,0.011-0.226   s-0.006-0.15-0.011-0.226c-0.005-0.077-0.009-0.155-0.019-0.232c-0.01-0.073-0.026-0.145-0.04-0.218   c-0.015-0.078-0.029-0.156-0.05-0.233c-0.019-0.071-0.044-0.14-0.068-0.21c-0.026-0.076-0.05-0.153-0.081-0.228   c-0.028-0.068-0.063-0.134-0.096-0.2c-0.028-0.057-0.051-0.117-0.083-0.173c-0.009-0.016-0.021-0.031-0.031-0.047   c-0.008-0.014-0.014-0.03-0.023-0.044l-5.946-9.836l5.946-9.836c0.009-0.014,0.014-0.03,0.023-0.044   c0.01-0.016,0.021-0.03,0.031-0.047c0.031-0.056,0.054-0.115,0.082-0.172c0.033-0.067,0.068-0.133,0.097-0.202   c0.031-0.074,0.055-0.15,0.081-0.226c0.024-0.071,0.049-0.141,0.069-0.212c0.021-0.076,0.034-0.154,0.05-0.231   c0.014-0.073,0.03-0.146,0.04-0.219c0.01-0.077,0.014-0.154,0.019-0.231c0.005-0.075,0.011-0.15,0.011-0.226   c0-0.076-0.006-0.15-0.011-0.226c-0.005-0.077-0.009-0.154-0.019-0.231c-0.01-0.073-0.026-0.146-0.04-0.218   c-0.015-0.078-0.029-0.155-0.05-0.232c-0.019-0.071-0.045-0.141-0.068-0.211c-0.026-0.076-0.05-0.152-0.081-0.227   c-0.029-0.068-0.063-0.134-0.096-0.201c-0.028-0.057-0.051-0.117-0.083-0.173c-0.009-0.016-0.021-0.031-0.031-0.047   c-0.008-0.014-0.014-0.03-0.023-0.044l-5.945-9.834l5.945-9.834C136.964,59.697,137.097,59.341,137.178,58.976z M96.586,33.036   h7.865v6.546v1.596c0,1.397-0.469,2.691-1.321,3.642c-0.755,0.843-1.728,1.308-2.737,1.308c-2.099,0-3.807-2.089-3.807-4.658   v-1.888V33.036z M73.723,47.376c2.488-2.769,5.754-4.294,9.197-4.294h6.769c0.018,0.141,0.049,0.276,0.072,0.415   c0.026,0.156,0.049,0.312,0.08,0.466c0.044,0.216,0.098,0.427,0.152,0.638c0.037,0.144,0.071,0.289,0.113,0.43   c0.067,0.224,0.146,0.443,0.225,0.661c0.044,0.121,0.082,0.244,0.129,0.363c0.11,0.277,0.234,0.546,0.363,0.812   c0.026,0.054,0.048,0.111,0.075,0.165c0.16,0.316,0.334,0.623,0.519,0.921c0.057,0.091,0.121,0.177,0.181,0.266   c0.134,0.203,0.269,0.405,0.414,0.598c0.082,0.108,0.17,0.209,0.255,0.314c0.134,0.165,0.267,0.329,0.409,0.486   c0.097,0.107,0.2,0.208,0.301,0.311c0.141,0.143,0.281,0.285,0.429,0.421c0.109,0.1,0.222,0.195,0.335,0.291   c0.149,0.126,0.3,0.25,0.455,0.368c0.119,0.09,0.241,0.177,0.363,0.262c0.159,0.11,0.32,0.216,0.484,0.318   c0.127,0.078,0.255,0.155,0.385,0.228c0.169,0.095,0.342,0.183,0.516,0.269c0.133,0.065,0.265,0.13,0.4,0.189   c0.181,0.079,0.366,0.149,0.552,0.218c0.136,0.05,0.27,0.102,0.408,0.147c0.197,0.063,0.397,0.115,0.598,0.166   c0.133,0.034,0.264,0.073,0.399,0.101c0.226,0.048,0.456,0.081,0.686,0.113c0.115,0.016,0.228,0.04,0.344,0.052   c0.349,0.037,0.702,0.058,1.059,0.058c2.983,0,5.881-1.326,7.952-3.637c0.229-0.256,0.443-0.523,0.648-0.797   c0.062-0.083,0.12-0.169,0.18-0.254c0.141-0.198,0.276-0.399,0.404-0.605c0.061-0.098,0.121-0.196,0.179-0.296   c0.124-0.213,0.24-0.43,0.351-0.65c0.044-0.088,0.092-0.175,0.134-0.265c0.146-0.309,0.282-0.623,0.403-0.944   c0.013-0.034,0.022-0.068,0.034-0.102c0.106-0.289,0.2-0.583,0.284-0.88c0.03-0.106,0.056-0.214,0.083-0.321   c0.06-0.234,0.113-0.469,0.16-0.707c0.023-0.116,0.045-0.232,0.064-0.349c0.013-0.08,0.032-0.158,0.044-0.238h5.768   c6.222,0,11.451,4.97,12.831,11.631H70.086C70.655,51.949,71.9,49.418,73.723,47.376z M72.44,124.583l2.804-4.638h49.511   l2.803,4.638H72.44z M115.95,108.3h11.614l-2.805,4.641H75.241l-2.805-4.641h33.234c1.933,0,3.5-1.567,3.5-3.5s-1.567-3.5-3.5-3.5   H72.436l2.808-4.645h30.426c0.013,0,0.026-0.004,0.039-0.004h10.203c0.013,0,0.026,0.004,0.039,0.004h8.807l2.808,4.645H115.95   c-1.933,0-3.5,1.567-3.5,3.5S114.018,108.3,115.95,108.3z M90.23,85.006h37.334l-2.808,4.645H75.244l-2.808-4.645h7.504   c1.933,0,3.5-1.567,3.5-3.5s-1.567-3.5-3.5-3.5h-7.504l2.808-4.645h4.696c1.933,0,3.5-1.567,3.5-3.5s-1.567-3.5-3.5-3.5h-4.696   l-2.808-4.645h55.128l-2.808,4.645H90.23c-1.933,0-3.5,1.567-3.5,3.5s1.567,3.5,3.5,3.5h34.527l2.808,4.645H90.23   c-1.933,0-3.5,1.567-3.5,3.5S88.297,85.006,90.23,85.006z M104.451,153.698h-3.062c-0.083-0.018-0.161-0.049-0.246-0.062   c-0.099-0.014-0.195-0.007-0.294-0.013c-0.044-0.004-0.086-0.017-0.131-0.019c-0.049-0.003-0.095,0.008-0.144,0.007   c-0.053,0.001-0.108-0.006-0.16-0.003c-0.03,0.001-0.059-0.006-0.09-0.005c-0.071,0.003-0.137,0.023-0.207,0.03   c-0.024,0.003-0.049,0-0.073,0.004c-0.041,0.004-0.082-0.001-0.123,0.005c-0.071,0.01-0.135,0.036-0.205,0.05   c-0.01,0.002-0.021,0.002-0.032,0.005h-3.099v-6.984v-1.45c0-2.568,1.708-4.658,3.807-4.658c1.01,0,1.982,0.464,2.737,1.308   c0.853,0.951,1.321,2.245,1.321,3.643v1.158V153.698z M117.08,143.214h-5.84c-0.004-0.024-0.013-0.047-0.018-0.071   c-0.089-0.47-0.21-0.929-0.349-1.382c-0.037-0.12-0.075-0.239-0.115-0.357c-0.161-0.472-0.341-0.936-0.556-1.383   c-0.006-0.012-0.013-0.022-0.018-0.034c-0.212-0.435-0.457-0.851-0.719-1.257c-0.068-0.105-0.137-0.208-0.208-0.311   c-0.282-0.408-0.58-0.805-0.912-1.176c-2.071-2.312-4.97-3.637-7.952-3.637c-0.354,0-0.703,0.021-1.048,0.057   c-0.114,0.012-0.225,0.034-0.339,0.05c-0.229,0.032-0.457,0.065-0.681,0.112c-0.132,0.028-0.261,0.064-0.391,0.096   c-0.201,0.051-0.401,0.103-0.598,0.166c-0.134,0.043-0.266,0.091-0.398,0.139c-0.187,0.068-0.373,0.141-0.556,0.22   c-0.131,0.057-0.259,0.116-0.388,0.178c-0.178,0.086-0.353,0.178-0.527,0.274c-0.123,0.068-0.246,0.137-0.366,0.21   c-0.173,0.106-0.342,0.218-0.509,0.334c-0.111,0.077-0.224,0.151-0.332,0.232c-0.175,0.131-0.343,0.271-0.51,0.412   c-0.092,0.078-0.187,0.151-0.276,0.231c-0.212,0.191-0.414,0.393-0.612,0.6c-0.038,0.04-0.079,0.075-0.116,0.115   c-0.231,0.25-0.45,0.512-0.66,0.783c-0.067,0.087-0.128,0.181-0.193,0.27c-0.138,0.19-0.275,0.38-0.402,0.579   c-0.073,0.115-0.14,0.234-0.209,0.352c-0.108,0.183-0.215,0.367-0.314,0.556c-0.067,0.129-0.129,0.262-0.192,0.394   c-0.089,0.187-0.174,0.375-0.254,0.568c-0.058,0.14-0.112,0.281-0.165,0.423c-0.072,0.194-0.138,0.391-0.201,0.59   c-0.046,0.146-0.09,0.292-0.131,0.441c-0.056,0.206-0.104,0.414-0.149,0.624c-0.032,0.147-0.066,0.294-0.092,0.444   c-0.009,0.053-0.024,0.103-0.032,0.156H82.92c-3.442,0-6.709-1.525-9.194-4.292c-1.827-2.039-3.072-4.57-3.641-7.337h59.825   C128.53,138.246,123.301,143.214,117.08,143.214z" fill="url(#SVGID_9_)"/></g></svg>